<svg width="122" height="17" viewBox="0 0 122 17" fill="none" xmlns="http://www.w3.org/2000/svg">
<path d="M0.716131 9.63463V7.75537L9.64262 3.63144V5.94789L3.30012 8.6689L3.37189 8.54492V8.84508L3.30012 8.7211L9.64262 11.4421V13.7586L0.716131 9.63463ZM18.0324 0.00994229L13.7258 16.0098H11.6573L15.9639 0.00994229H18.0324ZM21.3603 14H18.7763L23.481 0.636363H26.4695L31.1807 14H28.5967L25.0274 3.37695H24.923L21.3603 14ZM21.4451 8.76025H28.4923V10.7048H21.4451V8.76025ZM37.2133 3.97727V5.80433H31.4515V3.97727H37.2133ZM32.874 1.57599H35.2361V10.9854C35.2361 11.3029 35.284 11.5465 35.3797 11.7162C35.4797 11.8815 35.6103 11.9946 35.7712 12.0555C35.9322 12.1164 36.1105 12.1468 36.3063 12.1468C36.4542 12.1468 36.589 12.136 36.7108 12.1142C36.837 12.0925 36.9327 12.0729 36.9979 12.0555L37.396 13.9021C37.2698 13.9456 37.0893 13.9935 36.8544 14.0457C36.6238 14.0979 36.3411 14.1283 36.0061 14.137C35.4145 14.1544 34.8816 14.0653 34.4074 13.8695C33.9333 13.6694 33.557 13.3605 33.2786 12.9429C33.0045 12.5253 32.8697 12.0033 32.874 11.3769V1.57599ZM43.5183 14.1958C42.5134 14.1958 41.6455 13.9869 40.9147 13.5693C40.1882 13.1474 39.6292 12.5514 39.2377 11.7814C38.8462 11.0071 38.6505 10.0957 38.6505 9.04736C38.6505 8.01638 38.8462 7.11155 39.2377 6.33287C39.6336 5.54985 40.1861 4.94083 40.8951 4.50581C41.6042 4.06645 42.4373 3.84677 43.3943 3.84677C44.012 3.84677 44.5949 3.94682 45.143 4.14693C45.6955 4.34268 46.1827 4.64719 46.6047 5.06046C47.031 5.47372 47.366 6.00009 47.6096 6.63956C47.8532 7.27468 47.975 8.0316 47.975 8.91033V9.63463H39.7597V8.04248H45.7107C45.7064 7.59007 45.6085 7.18768 45.4171 6.83532C45.2257 6.4786 44.9582 6.19802 44.6145 5.99356C44.2752 5.78911 43.8793 5.68688 43.4269 5.68688C42.944 5.68688 42.5199 5.80433 42.1545 6.03924C41.7891 6.2698 41.5042 6.57431 41.2997 6.95277C41.0996 7.32688 40.9974 7.73797 40.993 8.18604V9.57591C40.993 10.1588 41.0996 10.6591 41.3127 11.0767C41.5259 11.49 41.8239 11.8075 42.2067 12.0294C42.5895 12.2469 43.0376 12.3556 43.5509 12.3556C43.8946 12.3556 44.2056 12.3078 44.484 12.2121C44.7624 12.112 45.0038 11.9663 45.2083 11.7749C45.4128 11.5835 45.5672 11.3464 45.6716 11.0637L47.8771 11.3116C47.7379 11.8945 47.4725 12.4035 47.081 12.8385C46.6939 13.2692 46.198 13.6041 45.5933 13.8434C44.9886 14.0783 44.2969 14.1958 43.5183 14.1958ZM52.3355 8.12731V14H49.9733V3.97727H52.2311V5.68035H52.3485C52.5791 5.11918 52.9467 4.6733 53.4513 4.34268C53.9602 4.01207 54.5888 3.84677 55.3371 3.84677C56.0287 3.84677 56.6312 3.99467 57.1445 4.29048C57.6622 4.58629 58.0624 5.01478 58.3452 5.57595C58.6323 6.13712 58.7737 6.81792 58.7693 7.61834V14H56.4072V7.98375C56.4072 7.31383 56.2332 6.78964 55.8852 6.41118C55.5415 6.03271 55.0652 5.84348 54.4562 5.84348C54.0429 5.84348 53.6753 5.93484 53.3534 6.11754C53.0358 6.2959 52.7857 6.55473 52.603 6.89404C52.4246 7.23335 52.3355 7.64444 52.3355 8.12731ZM64.0547 14.2023C63.4196 14.2023 62.8476 14.0892 62.3386 13.863C61.834 13.6324 61.4338 13.2931 61.138 12.845C60.8465 12.397 60.7008 11.8445 60.7008 11.1876C60.7008 10.6221 60.8052 10.1545 61.014 9.78471C61.2228 9.41495 61.5077 9.11914 61.8688 8.89728C62.2299 8.67543 62.6366 8.50795 63.089 8.39484C63.5458 8.27739 64.0178 8.19256 64.505 8.14036C65.0923 8.07946 65.5686 8.02508 65.934 7.97723C66.2994 7.92503 66.5648 7.84672 66.7301 7.74232C66.8997 7.63357 66.9846 7.46609 66.9846 7.23988V7.20073C66.9846 6.70916 66.8388 6.32852 66.5474 6.05882C66.2559 5.78911 65.8361 5.65425 65.288 5.65425C64.7094 5.65425 64.2505 5.78041 63.9112 6.03271C63.5762 6.28502 63.35 6.58301 63.2326 6.92667L61.027 6.61346C61.201 6.00444 61.4882 5.49547 61.8884 5.08656C62.2886 4.67329 62.778 4.36443 63.3565 4.15998C63.9351 3.95117 64.5746 3.84677 65.275 3.84677C65.7578 3.84677 66.2385 3.90332 66.717 4.01642C67.1955 4.12953 67.6327 4.31658 68.0286 4.57759C68.4245 4.83425 68.742 5.18444 68.9813 5.62815C69.2249 6.07187 69.3467 6.62651 69.3467 7.29208V14H67.0759V12.6232H66.9976C66.8541 12.9016 66.6518 13.1626 66.3908 13.4062C66.1341 13.6455 65.81 13.839 65.4185 13.9869C65.0313 14.1305 64.5768 14.2023 64.0547 14.2023ZM64.6681 12.4666C65.1423 12.4666 65.5534 12.373 65.9014 12.186C66.2494 11.9946 66.5169 11.7423 66.704 11.4291C66.8954 11.1159 66.9911 10.7744 66.9911 10.4046V9.22354C66.9171 9.28445 66.791 9.341 66.6126 9.3932C66.4386 9.4454 66.2429 9.49108 66.0254 9.53023C65.8079 9.56938 65.5925 9.60418 65.3794 9.63463C65.1662 9.66508 64.9813 9.69118 64.8247 9.71293C64.4724 9.76079 64.157 9.83909 63.8786 9.94784C63.6002 10.0566 63.3805 10.2089 63.2195 10.4046C63.0586 10.596 62.9781 10.844 62.9781 11.1485C62.9781 11.5835 63.1369 11.9119 63.4544 12.1338C63.772 12.3556 64.1765 12.4666 64.6681 12.4666ZM76.3548 14H71.8263V0.636363H76.4461C77.7729 0.636363 78.9127 0.903897 79.8653 1.43896C80.8224 1.96968 81.5575 2.73313 82.0709 3.72931C82.5842 4.7255 82.8408 5.91744 82.8408 7.30513C82.8408 8.69718 82.582 9.89347 82.0643 10.894C81.551 11.8945 80.8093 12.6623 79.8392 13.1974C78.8735 13.7325 77.712 14 76.3548 14ZM74.2471 11.9054H76.2373C77.1682 11.9054 77.9447 11.7358 78.5668 11.3964C79.1889 11.0528 79.6565 10.5416 79.9697 9.86301C80.2829 9.18004 80.4396 8.32741 80.4396 7.30513C80.4396 6.28285 80.2829 5.43457 79.9697 4.7603C79.6565 4.08168 79.1932 3.57488 78.5799 3.23992C77.9708 2.90061 77.2139 2.73096 76.3091 2.73096H74.2471V11.9054ZM89.4737 14.1958C88.4688 14.1958 87.601 13.9869 86.8702 13.5693C86.1437 13.1474 85.5847 12.5514 85.1932 11.7814C84.8017 11.0071 84.6059 10.0957 84.6059 9.04736C84.6059 8.01638 84.8017 7.11155 85.1932 6.33287C85.589 5.54985 86.1415 4.94083 86.8506 4.50581C87.5596 4.06645 88.3927 3.84677 89.3497 3.84677C89.9675 3.84677 90.5504 3.94682 91.0985 4.14693C91.651 4.34268 92.1382 4.64719 92.5601 5.06046C92.9865 5.47372 93.3214 6.00009 93.565 6.63956C93.8086 7.27468 93.9304 8.0316 93.9304 8.91033V9.63463H85.7152V8.04248H91.6662C91.6618 7.59007 91.564 7.18768 91.3725 6.83532C91.1811 6.4786 90.9136 6.19802 90.5699 5.99356C90.2306 5.78911 89.8348 5.68688 89.3824 5.68688C88.8995 5.68688 88.4754 5.80433 88.1099 6.03924C87.7445 6.2698 87.4596 6.57431 87.2551 6.95277C87.055 7.32688 86.9528 7.73797 86.9485 8.18604V9.57591C86.9485 10.1588 87.055 10.6591 87.2682 11.0767C87.4813 11.49 87.7793 11.8075 88.1621 12.0294C88.545 12.2469 88.993 12.3556 89.5063 12.3556C89.85 12.3556 90.161 12.3078 90.4394 12.2121C90.7179 12.112 90.9593 11.9663 91.1637 11.7749C91.3682 11.5835 91.5226 11.3464 91.627 11.0637L93.8326 11.3116C93.6933 11.8945 93.428 12.4035 93.0365 12.8385C92.6493 13.2692 92.1534 13.6041 91.5487 13.8434C90.9441 14.0783 90.2524 14.1958 89.4737 14.1958ZM104.594 3.97727L101.025 14H98.4149L94.8456 3.97727H97.3643L99.6677 11.4225H99.7721L102.082 3.97727H104.594ZM110.643 0.00994229L106.336 16.0098H104.268L108.575 0.00994229H110.643ZM121.579 9.63463L112.653 13.7586V11.4421L118.995 8.7211L118.924 8.84508V8.54492L118.995 8.6689L112.653 5.94789V3.63144L121.579 7.75537V9.63463Z" fill="white"/>
</svg>
